<?xml version="1.0" encoding="UTF-8" standalone="no"?>
<!-- Created with Inkscape (http://www.inkscape.org/) -->

<svg
   xmlns:dc="http://purl.org/dc/elements/1.1/"
   xmlns:cc="http://creativecommons.org/ns#"
   xmlns:rdf="http://www.w3.org/1999/02/22-rdf-syntax-ns#"
   xmlns:svg="http://www.w3.org/2000/svg"
   xmlns="http://www.w3.org/2000/svg"
   xmlns:sodipodi="http://sodipodi.sourceforge.net/DTD/sodipodi-0.dtd"
   xmlns:inkscape="http://www.inkscape.org/namespaces/inkscape"
   id="svg3336"
   version="1.1"
   inkscape:version="0.91 r13725"
   width="27.29273"
   height="43.507992"
   viewBox="0 0 27.29273 43.507992"
   sodipodi:docname="_Logo.svg">
  <metadata
     id="metadata3342">
    <rdf:RDF>
      <cc:Work
         rdf:about="">
        <dc:format>image/svg+xml</dc:format>
        <dc:type
           rdf:resource="http://purl.org/dc/dcmitype/StillImage" />
        <dc:title></dc:title>
      </cc:Work>
    </rdf:RDF>
  </metadata>
  <defs
     id="defs3340" />
  <sodipodi:namedview
     pagecolor="#ffffff"
     bordercolor="#666666"
     borderopacity="1"
     objecttolerance="10"
     gridtolerance="10"
     guidetolerance="10"
     inkscape:pageopacity="0"
     inkscape:pageshadow="2"
     inkscape:window-width="1280"
     inkscape:window-height="961"
     id="namedview3338"
     showgrid="false"
     fit-margin-top="0"
     fit-margin-left="0"
     fit-margin-right="0"
     fit-margin-bottom="0"
     inkscape:zoom="16.933333"
     inkscape:cx="17.485698"
     inkscape:cy="21.916422"
     inkscape:window-x="-8"
     inkscape:window-y="-8"
     inkscape:window-maximized="1"
     inkscape:current-layer="svg3336" />
  <path
     style="fill:#808080"
     d="m 13.576464,40.886844 c 0.0111,-2.2 0.215885,-2.982253 0.455078,-1.738341 0.239193,1.243913 0.230112,3.043913 -0.02018,4 -0.250293,0.956088 -0.445997,-0.06166 -0.434898,-2.261659 z M 9.3242817,39.445861 c 0,-1.132459 0.45,-2.059017 1.0000003,-2.059017 0.549999,0 0.999999,0.648442 0.999999,1.440983 0,0.792541 -0.45,1.719098 -0.999999,2.059017 C 9.7742817,41.226763 9.3242817,40.57832 9.3242817,39.445861 Z m 7.5312193,0.647855 c -0.428064,-0.986221 -0.497705,-2.073721 -0.154759,-2.416667 1.015492,-1.015491 1.834088,0.410947 1.366695,2.381526 -0.41435,1.746944 -0.46826,1.748507 -1.211936,0.03514 z M 0.42812466,33.636844 C 1.1699267,32.674344 2.8000277,30.614818 4.0505687,29.060119 5.9880997,26.651342 6.3242817,25.05714 6.3242817,18.278 c 0,-8.4299699 1.423247,-13.3144034 4.8896693,-16.7808261 2.690287,-2.690287 4.586903,-1.85963048 7.636837,3.3446881 2.111513,3.6030253 2.473493,5.477118 2.473493,12.806114 0,7.434445 0.304817,8.964372 2.273712,11.412143 5.603417,6.966281 6.591422,6.326725 -9.773712,6.326725 -13.88988734,0 -14.66668134,-0.101476 -13.39615634,-1.75 z M 6.3242817,31.264399 c 0,-1.773235 -0.246798,-1.917621 -1.5,-0.877555 -0.825,0.684689 -1.5,1.639789 -1.5,2.122445 0,0.482655 0.675,0.877555 1.5,0.877555 0.862178,0 1.5,-0.902494 1.5,-2.122445 z M 20.324281,23.252864 c 0,-11.303443 -1.238554,-16.8020501 -4.468028,-19.8359836 L 13.683443,1.3756312 11.266349,3.9485099 C 9.1100267,6.2438105 8.7927137,7.6739071 8.3251717,17.204116 c -0.288246,5.875501 -0.35529,11.920228 -0.148988,13.432728 0.360921,2.646072 0.597559,2.75 6.2615963,2.75 l 5.886501,0 0,-10.13398 z m -8.8,-7.06602 c -2.9855813,-2.985582 0.325708,-7.6593844 4.024177,-5.680024 2.202343,1.178658 2.334514,5.451657 0.194036,6.273035 -2.232664,0.856754 -2.856092,0.76911 -4.218213,-0.593011 z m 4.359307,-3.704039 c -0.858643,-1.389314 -3.241177,-1.419724 -4.08638,-0.05216 -0.354809,0.574093 -0.08252,1.721677 0.60508,2.550188 1.093789,1.317935 1.432112,1.324459 2.704415,0.05216 0.799825,-0.799825 1.149423,-1.94741 0.776885,-2.550189 z m 8.440693,20.026484 c 0,-0.482656 -0.675,-1.437756 -1.5,-2.122445 -1.253202,-1.040066 -1.5,-0.89568 -1.5,0.877555 0,1.219951 0.637821,2.122445 1.5,2.122445 0.825,0 1.5,-0.3949 1.5,-0.877555 z"
     id="path3346"
     inkscape:connector-curvature="0" />
</svg>
